<!-- Generated by readme-aura https://github.com/collectioneur/readme-aura -->
<svg width="140" height="44" viewBox="0 0 140 44" xmlns="http://www.w3.org/2000/svg"><mask id="satori_om-id"><rect x="0" y="0" width="140" height="44" fill="#fff"/></mask><path x="0" y="0" width="140" height="44" fill="#0d1b3d" d="M22,0 h96 a22,22 0 0 1 22,22 v0 a22,22 0 0 1 -22,22 h-96 a22,22 0 0 1 -22,-22 v0 a22,22 0 0 1 22,-22"/><clipPath id="satori_cp-id-0"><rect x="0" y="0" width="140" height="44"/></clipPath><mask id="satori_om-id-0"><rect x="0" y="0" width="140" height="44" fill="#fff"/></mask><svg x="0" y="0" width="140" height="44" preserveAspectRatio="none" clip-path="url(#satori_cp-id-0)" mask="url(#satori_om-id-0)"><defs><linearGradient id="smb-grad-Facebook" gradientUnits="objectBoundingBox" x1="0" y1="0" x2="1" y2="1"><stop offset="0%" stop-color="#ffffff"></stop><stop offset="10%" stop-color="#111111"></stop><stop offset="50%" stop-color="#eeeeee"></stop><stop offset="60%" stop-color="#1877F2"></stop><stop offset="80%" stop-color="#111111"></stop><stop offset="100%" stop-color="#555555"></stop><animateTransform attributeName="gradientTransform" type="rotate" from="0 0.5 0.5" to="360 0.5 0.5" dur="8s" repeatCount="indefinite"></animateTransform></linearGradient></defs><rect x="1.25" y="1.25" width="137.5" height="41.5" rx="20.75" ry="20.75" fill="none" stroke="url(#smb-grad-Facebook)" stroke-width="2" stroke-linecap="round" stroke-linejoin="round"></rect><rect x="0.25" y="0.25" width="139.5" height="43.5" rx="21.75" ry="21.75" fill="none" stroke="#AAAAAA" stroke-width="0.5" stroke-linecap="round" stroke-linejoin="round"></rect></svg><mask id="satori_om-id-0-0"><rect x="0" y="0" width="0" height="44" fill="#fff"/></mask><mask id="satori_om-id-0-0-0"><rect x="0" y="0" width="0" height="44" fill="#fff"/></mask><mask id="satori_om-id-0-0-0-0"><rect x="0" y="0" width="0" height="44" fill="#fff"/></mask><mask id="satori_om-id-0-0-0-1"><rect x="0" y="0" width="0" height="44" fill="#fff"/></mask><mask id="satori_om-id-0-0-0-2"><rect x="0" y="0" width="0" height="44" fill="#fff"/></mask><mask id="satori_om-id-0-0-0-3"><rect x="0" y="0" width="0" height="44" fill="#fff"/></mask><mask id="satori_om-id-0-0-0-4"><rect x="0" y="0" width="0" height="44" fill="#fff"/></mask><mask id="satori_om-id-0-0-0-5"><rect x="0" y="0" width="0" height="44" fill="#fff"/></mask><mask id="satori_om-id-0-0-0-6"><rect x="0" y="0" width="0" height="44" fill="#fff"/></mask><mask id="satori_om-id-0-1"><rect x="0" y="0" width="0" height="44" fill="#fff"/></mask><mask id="satori_om-id-0-2"><rect x="0" y="0" width="0" height="44" fill="#fff"/></mask><mask id="satori_om-id-1"><rect x="0" y="0" width="140" height="44" fill="#fff"/></mask><mask id="satori_om-id-1-0"><rect x="28" y="13" width="18" height="18" fill="#fff"/></mask><mask id="satori_om-id-1-1"><rect x="51" y="14" width="61" height="16" fill="#fff"/></mask><g  ><path fill="#f5f5f5" d="M53.8 27L51.9 27L51.9 17.5L58.1 17.5L58.1 19.1L53.8 19.1L53.8 21.8L57.7 21.8L57.7 23.4L53.8 23.4L53.8 27ZM61.2 27.1L61.2 27.1Q60.5 27.1 60.0 26.9Q59.5 26.7 59.2 26.2Q58.9 25.7 58.9 25.0L58.9 25.0Q58.9 24.4 59.1 24.0Q59.3 23.6 59.7 23.4Q60.1 23.1 60.5 23.0Q61.0 22.9 61.5 22.8L61.5 22.8Q62.2 22.8 62.5 22.7Q62.9 22.7 63.1 22.5Q63.3 22.4 63.3 22.2L63.3 22.2L63.3 22.2Q63.3 21.9 63.1 21.7Q63.0 21.4 62.8 21.3Q62.5 21.2 62.1 21.2L62.1 21.2Q61.8 21.2 61.5 21.3Q61.2 21.4 61.1 21.6Q60.9 21.8 60.8 22.0L60.8 22.0L59.1 21.8Q59.2 21.1 59.7 20.7Q60.1 20.3 60.7 20.0Q61.4 19.8 62.2 19.8L62.2 19.8Q62.7 19.8 63.3 20.0Q63.8 20.1 64.2 20.4Q64.7 20.7 64.9 21.1Q65.2 21.6 65.2 22.2L65.2 22.2L65.2 27L63.4 27L63.4 26.0L63.3 26.0Q63.1 26.3 62.8 26.6Q62.6 26.8 62.2 27.0Q61.7 27.1 61.2 27.1ZM61.8 25.8L61.8 25.8Q62.2 25.8 62.6 25.6Q62.9 25.4 63.1 25.1Q63.3 24.8 63.3 24.5L63.3 24.5L63.3 23.7Q63.2 23.8 63.0 23.8Q62.8 23.9 62.6 23.9Q62.4 23.9 62.2 24.0Q62.0 24.0 61.9 24.0L61.9 24.0Q61.5 24.1 61.2 24.2Q61.0 24.3 60.8 24.5Q60.7 24.7 60.7 25.0L60.7 25.0Q60.7 25.2 60.8 25.4Q61.0 25.6 61.2 25.7Q61.5 25.8 61.8 25.8ZM69.8 27.1L69.8 27.1Q68.7 27.1 67.9 26.7Q67.1 26.2 66.7 25.4Q66.3 24.6 66.3 23.5L66.3 23.5Q66.3 22.4 66.7 21.6Q67.1 20.7 67.9 20.3Q68.7 19.8 69.8 19.8L69.8 19.8Q70.4 19.8 70.9 20.0Q71.5 20.1 71.9 20.4Q72.3 20.8 72.6 21.2Q72.8 21.6 72.9 22.2L72.9 22.2L71.1 22.5Q71.1 22.2 71.0 22.0Q70.8 21.8 70.7 21.6Q70.5 21.5 70.3 21.4Q70.1 21.3 69.8 21.3L69.8 21.3Q69.3 21.3 68.9 21.6Q68.6 21.9 68.4 22.3Q68.2 22.8 68.2 23.5L68.2 23.5Q68.2 24.1 68.4 24.6Q68.6 25.1 68.9 25.4Q69.3 25.6 69.8 25.6L69.8 25.6Q70.1 25.6 70.3 25.6Q70.5 25.5 70.7 25.3Q70.9 25.1 71.0 24.9Q71.1 24.7 71.2 24.4L71.2 24.4L72.9 24.7Q72.8 25.3 72.6 25.7Q72.3 26.2 71.9 26.5Q71.5 26.8 70.9 27.0Q70.4 27.1 69.8 27.1ZM77.2 27.1L77.2 27.1Q76.2 27.1 75.4 26.7Q74.6 26.3 74.2 25.4Q73.7 24.6 73.7 23.5L73.7 23.5Q73.7 22.4 74.2 21.6Q74.6 20.7 75.3 20.3Q76.1 19.8 77.1 19.8L77.1 19.8Q77.8 19.8 78.5 20.0Q79.1 20.3 79.5 20.7Q80.0 21.2 80.2 21.8Q80.5 22.5 80.5 23.4L80.5 23.4L80.5 23.9L75.6 23.9Q75.6 24.5 75.8 24.9L75.8 24.9Q76.0 25.3 76.4 25.5Q76.8 25.7 77.3 25.7L77.3 25.7Q77.6 25.7 77.9 25.6Q78.2 25.5 78.4 25.3Q78.5 25.1 78.6 24.9L78.6 24.9L80.4 25.2Q80.2 25.8 79.8 26.2Q79.4 26.7 78.7 26.9Q78.1 27.1 77.2 27.1ZM75.6 22.8L75.6 22.8L78.6 22.8Q78.6 22.4 78.5 22.1L78.5 22.1Q78.3 21.7 78.0 21.5Q77.7 21.2 77.2 21.2L77.2 21.2Q76.7 21.2 76.3 21.5Q76.0 21.7 75.8 22.1L75.8 22.1Q75.7 22.4 75.6 22.8ZM85.6 27.1L85.6 27.1Q85.0 27.1 84.6 26.9Q84.2 26.7 83.9 26.4Q83.7 26.1 83.5 25.9L83.5 25.9L83.5 25.9L83.5 27L81.6 27L81.6 17.5L83.5 17.5L83.5 21.1L83.5 21.1Q83.7 20.8 83.9 20.5Q84.2 20.2 84.6 20.0Q85.0 19.8 85.6 19.8L85.6 19.8Q86.4 19.8 87.0 20.2Q87.7 20.6 88.1 21.4Q88.4 22.3 88.4 23.5L88.4 23.5Q88.4 24.6 88.1 25.5Q87.7 26.3 87.0 26.7Q86.4 27.1 85.6 27.1ZM85.0 25.6L85.0 25.6Q85.5 25.6 85.8 25.3Q86.1 25.0 86.3 24.6Q86.5 24.1 86.5 23.5L86.5 23.5Q86.5 22.8 86.3 22.4Q86.1 21.9 85.8 21.6Q85.5 21.3 85.0 21.3L85.0 21.3Q84.5 21.3 84.1 21.6Q83.8 21.9 83.6 22.3Q83.4 22.8 83.4 23.5L83.4 23.5Q83.4 24.1 83.6 24.6Q83.8 25.1 84.1 25.3Q84.5 25.6 85.0 25.6ZM92.8 27.1L92.8 27.1Q91.7 27.1 90.9 26.7Q90.1 26.2 89.7 25.4Q89.3 24.6 89.3 23.5L89.3 23.5Q89.3 22.4 89.7 21.6Q90.1 20.7 90.9 20.3Q91.7 19.8 92.8 19.8L92.8 19.8Q93.8 19.8 94.6 20.3Q95.4 20.7 95.8 21.6Q96.2 22.4 96.2 23.5L96.2 23.5Q96.2 24.6 95.8 25.4Q95.4 26.2 94.6 26.7Q93.8 27.1 92.8 27.1ZM92.8 25.6L92.8 25.6Q93.3 25.6 93.6 25.4Q93.9 25.1 94.1 24.6Q94.3 24.1 94.3 23.5L94.3 23.5Q94.3 22.8 94.1 22.4Q93.9 21.9 93.6 21.6Q93.3 21.3 92.8 21.3L92.8 21.3Q92.2 21.3 91.9 21.6Q91.6 21.9 91.4 22.4Q91.2 22.8 91.2 23.5L91.2 23.5Q91.2 24.1 91.4 24.6Q91.6 25.1 91.9 25.4Q92.2 25.6 92.8 25.6ZM100.5 27.1L100.5 27.1Q99.5 27.1 98.7 26.7Q97.9 26.2 97.5 25.4Q97.1 24.6 97.1 23.5L97.1 23.5Q97.1 22.4 97.5 21.6Q97.9 20.7 98.7 20.3Q99.5 19.8 100.5 19.8L100.5 19.8Q101.6 19.8 102.4 20.3Q103.2 20.7 103.6 21.6Q104.0 22.4 104.0 23.5L104.0 23.5Q104.0 24.6 103.6 25.4Q103.2 26.2 102.4 26.7Q101.6 27.1 100.5 27.1ZM100.5 25.6L100.5 25.6Q101.0 25.6 101.4 25.4Q101.7 25.1 101.9 24.6Q102.1 24.1 102.1 23.5L102.1 23.5Q102.1 22.8 101.9 22.4Q101.7 21.9 101.4 21.6Q101.0 21.3 100.5 21.3L100.5 21.3Q100.0 21.3 99.7 21.6Q99.3 21.9 99.2 22.4Q99.0 22.8 99.0 23.5L99.0 23.5Q99.0 24.1 99.2 24.6Q99.3 25.1 99.7 25.4Q100.0 25.6 100.5 25.6ZM107.0 27L105.1 27L105.1 17.5L107.0 17.5L107.0 22.6L107.1 22.6L109.5 19.9L111.7 19.9L109.0 23.0L111.8 27L109.6 27L107.6 24.1L107.0 24.7L107.0 27Z "/></g></svg>