<!-- Generated by readme-aura https://github.com/collectioneur/readme-aura -->
<svg width="145" height="44" viewBox="0 0 145 44" xmlns="http://www.w3.org/2000/svg"><mask id="satori_om-id"><rect x="0" y="0" width="145" height="44" fill="#fff"/></mask><path x="0" y="0" width="145" height="44" fill="#2b0a2b" d="M22,0 h101 a22,22 0 0 1 22,22 v0 a22,22 0 0 1 -22,22 h-101 a22,22 0 0 1 -22,-22 v0 a22,22 0 0 1 22,-22"/><clipPath id="satori_cp-id-0"><rect x="0" y="0" width="145" height="44"/></clipPath><mask id="satori_om-id-0"><rect x="0" y="0" width="145" height="44" fill="#fff"/></mask><svg x="0" y="0" width="145" height="44" preserveAspectRatio="none" clip-path="url(#satori_cp-id-0)" mask="url(#satori_om-id-0)"><defs><linearGradient id="smb-grad-Instagram" gradientUnits="objectBoundingBox" x1="0" y1="0" x2="1" y2="1"><stop offset="0%" stop-color="#ffffff"></stop><stop offset="10%" stop-color="#111111"></stop><stop offset="50%" stop-color="#eeeeee"></stop><stop offset="60%" stop-color="#E4405F"></stop><stop offset="80%" stop-color="#111111"></stop><stop offset="100%" stop-color="#555555"></stop><animateTransform attributeName="gradientTransform" type="rotate" from="0 0.5 0.5" to="360 0.5 0.5" dur="8s" repeatCount="indefinite"></animateTransform></linearGradient></defs><rect x="1.25" y="1.25" width="142.5" height="41.5" rx="20.75" ry="20.75" fill="none" stroke="url(#smb-grad-Instagram)" stroke-width="2" stroke-linecap="round" stroke-linejoin="round"></rect><rect x="0.25" y="0.25" width="144.5" height="43.5" rx="21.75" ry="21.75" fill="none" stroke="#AAAAAA" stroke-width="0.5" stroke-linecap="round" stroke-linejoin="round"></rect></svg><mask id="satori_om-id-0-0"><rect x="0" y="0" width="0" height="44" fill="#fff"/></mask><mask id="satori_om-id-0-0-0"><rect x="0" y="0" width="0" height="44" fill="#fff"/></mask><mask id="satori_om-id-0-0-0-0"><rect x="0" y="0" width="0" height="44" fill="#fff"/></mask><mask id="satori_om-id-0-0-0-1"><rect x="0" y="0" width="0" height="44" fill="#fff"/></mask><mask id="satori_om-id-0-0-0-2"><rect x="0" y="0" width="0" height="44" fill="#fff"/></mask><mask id="satori_om-id-0-0-0-3"><rect x="0" y="0" width="0" height="44" fill="#fff"/></mask><mask id="satori_om-id-0-0-0-4"><rect x="0" y="0" width="0" height="44" fill="#fff"/></mask><mask id="satori_om-id-0-0-0-5"><rect x="0" y="0" width="0" height="44" fill="#fff"/></mask><mask id="satori_om-id-0-0-0-6"><rect x="0" y="0" width="0" height="44" fill="#fff"/></mask><mask id="satori_om-id-0-1"><rect x="0" y="0" width="0" height="44" fill="#fff"/></mask><mask id="satori_om-id-0-2"><rect x="0" y="0" width="0" height="44" fill="#fff"/></mask><mask id="satori_om-id-1"><rect x="0" y="0" width="145" height="44" fill="#fff"/></mask><mask id="satori_om-id-1-0"><rect x="30" y="13" width="18" height="18" fill="#fff"/></mask><mask id="satori_om-id-1-1"><rect x="53" y="14" width="63" height="16" fill="#fff"/></mask><g  ><path fill="#f5f5f5" d="M53.9 17.5L55.8 17.5L55.8 27L53.9 27L53.9 17.5ZM59.2 22.9L59.2 22.9L59.2 27L57.3 27L57.3 19.9L59.1 19.9L59.1 21.4Q59.4 20.7 59.8 20.3L59.8 20.3Q60.4 19.8 61.3 19.8L61.3 19.8Q62.0 19.8 62.6 20.1Q63.1 20.5 63.4 21.1Q63.7 21.7 63.7 22.5L63.7 22.5L63.7 27L61.8 27L61.8 22.8Q61.8 22.2 61.5 21.8Q61.1 21.4 60.5 21.4L60.5 21.4Q60.1 21.4 59.8 21.6Q59.5 21.8 59.3 22.1Q59.2 22.4 59.2 22.9ZM68.0 27.1L68.0 27.1Q67.1 27.1 66.5 26.9Q65.8 26.7 65.4 26.2Q65.0 25.7 64.8 25.1L64.8 25.1L66.6 24.8Q66.7 25.2 67.1 25.5Q67.4 25.7 68.0 25.7L68.0 25.7Q68.6 25.7 68.9 25.5Q69.2 25.3 69.2 25.0L69.2 25.0Q69.2 24.7 69.0 24.6Q68.8 24.4 68.3 24.3L68.3 24.3L67.1 24.0Q66.0 23.8 65.5 23.3Q65.0 22.8 65.0 22.0L65.0 22.0Q65.0 21.3 65.4 20.8Q65.8 20.3 66.4 20.1Q67.1 19.8 68.0 19.8L68.0 19.8Q68.8 19.8 69.5 20.0Q70.1 20.3 70.5 20.7Q70.8 21.1 71.0 21.7L71.0 21.7L69.3 22.0Q69.2 21.6 68.9 21.4Q68.6 21.2 68.0 21.2L68.0 21.2Q67.6 21.2 67.2 21.4Q66.9 21.6 66.9 21.9L66.9 21.9Q66.9 22.2 67.1 22.4Q67.3 22.5 67.8 22.6L67.8 22.6L69.1 22.9Q70.1 23.1 70.6 23.6Q71.1 24.0 71.1 24.8L71.1 24.8Q71.1 25.5 70.7 26.0Q70.3 26.6 69.6 26.8Q68.9 27.1 68.0 27.1ZM74.4 19.9L75.8 19.9L75.8 21.4L74.4 21.4L74.4 24.9Q74.4 25.3 74.6 25.4Q74.7 25.6 75.1 25.6L75.1 25.6Q75.2 25.6 75.4 25.6Q75.6 25.5 75.7 25.5L75.7 25.5L76.0 26.9Q75.6 27.0 75.3 27.1Q75.0 27.1 74.7 27.1L74.7 27.1Q73.7 27.1 73.1 26.6Q72.5 26.1 72.5 25.1L72.5 25.1L72.5 21.4L71.6 21.4L71.6 19.9L72.5 19.9L72.5 18.2L74.4 18.2L74.4 19.9ZM78.8 27.1L78.8 27.1Q78.1 27.1 77.6 26.9Q77.0 26.7 76.7 26.2Q76.4 25.7 76.4 25.0L76.4 25.0Q76.4 24.4 76.6 24.0Q76.9 23.6 77.2 23.4Q77.6 23.1 78.1 23.0Q78.6 22.9 79.1 22.8L79.1 22.8Q79.7 22.8 80.1 22.7Q80.5 22.7 80.6 22.5Q80.8 22.4 80.8 22.2L80.8 22.2L80.8 22.2Q80.8 21.9 80.7 21.7Q80.6 21.4 80.3 21.3Q80.1 21.2 79.7 21.2L79.7 21.2Q79.3 21.2 79.1 21.3Q78.8 21.4 78.6 21.6Q78.4 21.8 78.4 22.0L78.4 22.0L76.6 21.8Q76.8 21.1 77.2 20.7Q77.7 20.3 78.3 20.0Q78.9 19.8 79.7 19.8L79.7 19.8Q80.3 19.8 80.8 20.0Q81.4 20.1 81.8 20.4Q82.2 20.7 82.5 21.1Q82.7 21.6 82.7 22.2L82.7 22.2L82.7 27L80.9 27L80.9 26.0L80.9 26.0Q80.7 26.3 80.4 26.6Q80.1 26.8 79.7 27.0Q79.3 27.1 78.8 27.1ZM79.3 25.8L79.3 25.8Q79.8 25.8 80.1 25.6Q80.4 25.4 80.6 25.1Q80.8 24.8 80.8 24.5L80.8 24.5L80.8 23.7Q80.7 23.8 80.6 23.8Q80.4 23.9 80.2 23.9Q80.0 23.9 79.8 24.0Q79.6 24.0 79.4 24.0L79.4 24.0Q79.1 24.1 78.8 24.2Q78.5 24.3 78.4 24.5Q78.2 24.7 78.2 25.0L78.2 25.0Q78.2 25.2 78.4 25.4Q78.5 25.6 78.8 25.7Q79.0 25.8 79.3 25.8ZM87.3 29.8L87.3 29.8Q86.4 29.8 85.8 29.6Q85.1 29.4 84.7 29.0Q84.3 28.6 84.1 28.1L84.1 28.1L85.7 27.6Q85.8 27.8 86.0 28.0Q86.2 28.2 86.5 28.3Q86.8 28.4 87.3 28.4L87.3 28.4Q88.0 28.4 88.4 28.1Q88.8 27.8 88.8 27.1L88.8 27.1L88.8 25.7L88.7 25.7Q88.6 26.0 88.3 26.3Q88.1 26.6 87.7 26.7Q87.3 26.9 86.7 26.9L86.7 26.9Q85.9 26.9 85.3 26.5Q84.6 26.1 84.2 25.4Q83.8 24.6 83.8 23.4L83.8 23.4Q83.8 22.2 84.2 21.4Q84.6 20.6 85.3 20.2Q86.0 19.8 86.7 19.8L86.7 19.8Q87.3 19.8 87.7 20.0Q88.1 20.2 88.4 20.5Q88.7 20.8 88.8 21.1L88.8 21.1L88.9 21.1L88.9 19.9L90.7 19.9L90.7 26.9Q90.7 27.9 90.3 28.5Q89.9 29.2 89.1 29.5Q88.3 29.8 87.3 29.8ZM87.3 25.5L87.3 25.5Q87.8 25.5 88.2 25.2Q88.5 25.0 88.7 24.5Q88.9 24.1 88.9 23.4L88.9 23.4Q88.9 22.8 88.7 22.3Q88.5 21.9 88.2 21.6Q87.8 21.3 87.3 21.3L87.3 21.3Q86.8 21.3 86.5 21.6Q86.2 21.9 86.0 22.3Q85.8 22.8 85.8 23.4L85.8 23.4Q85.8 24.0 86.0 24.5Q86.2 25.0 86.5 25.2Q86.8 25.5 87.3 25.5ZM94.1 27L92.2 27L92.2 19.9L94.0 19.9L94.0 21.1L94.1 21.1Q94.3 20.5 94.7 20.1Q95.2 19.8 95.8 19.8L95.8 19.8Q95.9 19.8 96.1 19.8Q96.3 19.8 96.4 19.9L96.4 19.9L96.4 21.6Q96.3 21.5 96.0 21.5Q95.8 21.5 95.6 21.5L95.6 21.5Q95.1 21.5 94.8 21.7Q94.4 21.9 94.3 22.2Q94.1 22.5 94.1 23.0L94.1 23.0L94.1 27ZM99.2 27.1L99.2 27.1Q98.6 27.1 98.0 26.9Q97.5 26.7 97.2 26.2Q96.9 25.7 96.9 25.0L96.9 25.0Q96.9 24.4 97.1 24.0Q97.3 23.6 97.7 23.4Q98.1 23.1 98.5 23.0Q99.0 22.9 99.6 22.8L99.6 22.8Q100.2 22.8 100.5 22.7Q100.9 22.7 101.1 22.5Q101.3 22.4 101.3 22.2L101.3 22.2L101.3 22.2Q101.3 21.9 101.1 21.7Q101.0 21.4 100.8 21.3Q100.5 21.2 100.2 21.2L100.2 21.2Q99.8 21.2 99.5 21.3Q99.2 21.4 99.1 21.6Q98.9 21.8 98.8 22.0L98.8 22.0L97.1 21.8Q97.3 21.1 97.7 20.7Q98.1 20.3 98.7 20.0Q99.4 19.8 100.2 19.8L100.2 19.8Q100.7 19.8 101.3 20.0Q101.8 20.1 102.2 20.4Q102.7 20.7 102.9 21.1Q103.2 21.6 103.2 22.2L103.2 22.2L103.2 27L101.4 27L101.4 26.0L101.3 26.0Q101.1 26.3 100.9 26.6Q100.6 26.8 100.2 27.0Q99.8 27.1 99.2 27.1ZM99.8 25.8L99.8 25.8Q100.2 25.8 100.6 25.6Q100.9 25.4 101.1 25.1Q101.3 24.8 101.3 24.5L101.3 24.5L101.3 23.7Q101.2 23.8 101.0 23.8Q100.9 23.9 100.6 23.9Q100.4 23.9 100.2 24.0Q100.0 24.0 99.9 24.0L99.9 24.0Q99.5 24.1 99.3 24.2Q99.0 24.3 98.8 24.5Q98.7 24.7 98.7 25.0L98.7 25.0Q98.7 25.2 98.8 25.4Q99.0 25.6 99.2 25.7Q99.5 25.8 99.8 25.8ZM106.5 27L104.6 27L104.6 19.9L106.4 19.9L106.4 21.3Q106.6 20.9 106.8 20.6L106.8 20.6Q107.1 20.2 107.6 20.0Q108.0 19.8 108.5 19.8L108.5 19.8Q109.2 19.8 109.7 20.3L109.7 20.3Q110.1 20.7 110.3 21.4L110.3 21.4Q110.4 21.0 110.7 20.7L110.7 20.7Q111.0 20.2 111.5 20.0Q112.0 19.8 112.6 19.8L112.6 19.8Q113.2 19.8 113.7 20.1Q114.2 20.4 114.5 20.9Q114.8 21.4 114.8 22.2L114.8 22.2L114.8 27L112.9 27L112.9 22.6Q112.9 22.0 112.6 21.7Q112.3 21.4 111.8 21.4L111.8 21.4Q111.4 21.4 111.2 21.5Q110.9 21.7 110.8 22.0Q110.6 22.3 110.6 22.6L110.6 22.6L110.6 27L108.8 27L108.8 22.5Q108.8 22.0 108.5 21.7Q108.2 21.4 107.7 21.4L107.7 21.4Q107.4 21.4 107.1 21.5Q106.8 21.7 106.7 22.0Q106.5 22.3 106.5 22.7L106.5 22.7L106.5 27Z "/></g></svg>