<!-- Generated by readme-aura https://github.com/collectioneur/readme-aura -->
<svg width="800" height="44" viewBox="0 0 800 44" xmlns="http://www.w3.org/2000/svg"><mask id="satori_om-id"><rect x="0" y="0" width="800" height="15" fill="#fff"/></mask><mask id="satori_om-id-0"><rect x="230" y="0" width="96" height="15" fill="#fff"/></mask><g  ><path fill="rgba(255,255,255,.45)" d="M233.2 12.1L233.2 12.1Q232.5 12.1 232.0 11.9Q231.4 11.7 231.1 11.4Q230.8 11.0 230.6 10.4L230.6 10.4L231.6 10.2Q231.8 10.7 232.2 11.0Q232.6 11.2 233.1 11.2L233.1 11.2Q233.8 11.2 234.2 10.9Q234.6 10.6 234.6 10.2L234.6 10.2Q234.6 9.9 234.4 9.7Q234.2 9.4 233.7 9.3L233.7 9.3L232.6 9.1Q231.7 8.9 231.3 8.4Q230.8 8.0 230.8 7.3L230.8 7.3Q230.8 6.7 231.1 6.3Q231.5 5.9 232.0 5.6Q232.6 5.4 233.3 5.4L233.3 5.4Q233.9 5.4 234.4 5.6Q234.9 5.8 235.2 6.1Q235.5 6.5 235.6 6.9L235.6 6.9L234.7 7.2Q234.5 6.8 234.2 6.6Q233.9 6.3 233.3 6.3L233.3 6.3Q232.7 6.3 232.3 6.5Q231.9 6.8 231.9 7.2L231.9 7.2Q231.9 7.6 232.2 7.8Q232.4 8.0 233 8.2L233 8.2L234.0 8.4Q234.9 8.6 235.3 9.0Q235.7 9.5 235.7 10.2L235.7 10.2Q235.7 10.7 235.4 11.2Q235.1 11.6 234.5 11.9Q233.9 12.1 233.2 12.1ZM238.3 14.4L237.3 14.4L237.3 5.4L238.3 5.4L238.3 6.5L238.4 6.5Q238.5 6.3 238.7 6.1Q238.9 5.8 239.3 5.6Q239.7 5.4 240.3 5.4L240.3 5.4Q241.1 5.4 241.7 5.8Q242.4 6.2 242.7 6.9Q243.1 7.7 243.1 8.7L243.1 8.7Q243.1 9.8 242.7 10.5Q242.4 11.3 241.7 11.7Q241.1 12.1 240.3 12.1L240.3 12.1Q239.7 12.1 239.3 11.9Q238.9 11.7 238.7 11.4Q238.5 11.2 238.4 11.0L238.4 11.0L238.3 11.0L238.3 14.4ZM240.1 11.2L240.1 11.2Q240.8 11.2 241.2 10.9Q241.6 10.5 241.8 10.0Q242 9.4 242 8.7L242 8.7Q242 8.1 241.8 7.5Q241.6 7.0 241.2 6.6Q240.8 6.3 240.1 6.3L240.1 6.3Q239.5 6.3 239.1 6.6Q238.7 6.9 238.5 7.5Q238.3 8.0 238.3 8.7L238.3 8.7Q238.3 9.5 238.5 10.0Q238.7 10.6 239.1 10.9Q239.6 11.2 240.1 11.2ZM247.4 12.1L247.4 12.1Q246.4 12.1 245.7 11.7Q245.0 11.3 244.7 10.5Q244.3 9.8 244.3 8.8Q244.3 7.8 244.7 7.0Q245.0 6.2 245.7 5.8Q246.3 5.4 247.2 5.4L247.2 5.4Q247.8 5.4 248.3 5.5Q248.8 5.7 249.2 6.1Q249.6 6.5 249.8 7.1Q250.1 7.7 250.1 8.6L250.1 8.6L250.1 9.1L245.4 9.1Q245.4 9.7 245.6 10.2L245.6 10.2Q245.9 10.7 246.3 10.9Q246.8 11.2 247.4 11.2L247.4 11.2Q247.8 11.2 248.1 11.1Q248.4 11.0 248.6 10.8Q248.8 10.5 249.0 10.2L249.0 10.2L250.0 10.5Q249.8 11.0 249.5 11.3Q249.1 11.7 248.6 11.9Q248.0 12.1 247.4 12.1ZM245.4 8.2L245.4 8.2L249.0 8.2Q249.0 7.7 248.8 7.4L248.8 7.4Q248.6 6.9 248.2 6.6Q247.8 6.3 247.2 6.3Q246.6 6.3 246.2 6.6Q245.8 6.9 245.6 7.3L245.6 7.3Q245.4 7.7 245.4 8.2ZM254.3 12.1L254.3 12.1Q253.4 12.1 252.7 11.7Q252.0 11.3 251.7 10.5Q251.3 9.8 251.3 8.8L251.3 8.8Q251.3 7.7 251.7 7.0Q252.0 6.2 252.7 5.8Q253.4 5.4 254.3 5.4L254.3 5.4Q254.7 5.4 255.2 5.5Q255.6 5.6 255.9 5.8Q256.3 6.1 256.5 6.4Q256.8 6.8 256.9 7.2L256.9 7.2L255.9 7.5Q255.8 7.2 255.7 7.0Q255.5 6.8 255.3 6.6Q255.1 6.5 254.9 6.4Q254.6 6.3 254.3 6.3L254.3 6.3Q253.6 6.3 253.2 6.7Q252.8 7.0 252.6 7.6Q252.4 8.1 252.4 8.8L252.4 8.8Q252.4 9.4 252.6 10.0Q252.8 10.5 253.2 10.9Q253.6 11.2 254.3 11.2L254.3 11.2Q254.6 11.2 254.9 11.1Q255.1 11.0 255.4 10.9Q255.6 10.7 255.7 10.5Q255.9 10.3 255.9 10.0L255.9 10.0L256.9 10.3Q256.8 10.7 256.6 11.1Q256.3 11.4 256.0 11.6Q255.6 11.9 255.2 12.0Q254.8 12.1 254.3 12.1ZM259.5 12L258.5 12L258.5 5.4L259.5 5.4L259.5 12ZM259.0 4.4L259.0 4.4Q258.7 4.4 258.5 4.2Q258.3 4.0 258.3 3.7L258.3 3.7Q258.3 3.4 258.5 3.2Q258.7 3.0 259.0 3.0L259.0 3.0Q259.3 3.0 259.5 3.2Q259.7 3.4 259.7 3.7L259.7 3.7Q259.7 4.0 259.5 4.2Q259.3 4.4 259.0 4.4ZM263.2 12.2L263.2 12.2Q262.6 12.2 262.1 11.9Q261.6 11.7 261.3 11.2Q261.0 10.8 261.0 10.1L261.0 10.1Q261.0 9.6 261.2 9.2Q261.4 8.9 261.8 8.7Q262.2 8.5 262.6 8.4Q263.1 8.3 263.5 8.2L263.5 8.2Q264.1 8.1 264.5 8.1Q264.8 8.1 265.0 8.0Q265.2 7.9 265.2 7.6L265.2 7.6L265.2 7.6Q265.2 7.2 265.0 6.9Q264.9 6.6 264.6 6.4Q264.3 6.3 263.8 6.3L263.8 6.3Q263.4 6.3 263.0 6.4Q262.7 6.6 262.5 6.8Q262.3 7.0 262.2 7.3L262.2 7.3L261.2 6.9Q261.4 6.3 261.8 6.0Q262.3 5.6 262.8 5.5Q263.3 5.4 263.8 5.4L263.8 5.4Q264.1 5.4 264.5 5.4Q265.0 5.5 265.4 5.8Q265.7 6.0 266.0 6.5Q266.3 6.9 266.3 7.7L266.3 7.7L266.3 12L265.2 12L265.2 11.1L265.1 11.1Q265.0 11.3 264.8 11.6Q264.5 11.8 264.1 12.0Q263.8 12.2 263.2 12.2ZM263.4 11.2L263.4 11.2Q264.0 11.2 264.4 11.0Q264.8 10.8 265.0 10.4Q265.2 10.0 265.2 9.6L265.2 9.6L265.2 8.7Q265.1 8.8 264.9 8.9Q264.7 8.9 264.4 9.0Q264.1 9.0 263.9 9.0Q263.6 9.1 263.5 9.1L263.5 9.1Q263.1 9.1 262.8 9.3Q262.4 9.4 262.2 9.6Q262.0 9.8 262.0 10.2L262.0 10.2Q262.0 10.5 262.2 10.8Q262.4 11.0 262.7 11.1Q263.0 11.2 263.4 11.2ZM268.1 3.3L269.2 3.3L269.2 12L268.1 12L268.1 3.3Z M275.6 5.4L277.0 5.4L277.0 6.4L275.6 6.4L275.6 10.3Q275.6 10.7 275.8 10.9Q276.0 11.1 276.4 11.1L276.4 11.1Q276.5 11.1 276.6 11.1Q276.8 11.1 276.9 11.1L276.9 11.1L277.1 12.0Q277.0 12.0 276.8 12.1Q276.6 12.1 276.4 12.1L276.4 12.1Q275.5 12.1 275.0 11.6Q274.6 11.2 274.6 10.4L274.6 10.4L274.6 6.4L273.6 6.4L273.6 5.4L274.6 5.4L274.6 3.9L275.6 3.9L275.6 5.4ZM279.4 8.1L279.4 8.1L279.4 12L278.3 12L278.3 3.3L279.4 3.3L279.4 6.6Q279.6 6.0 280.0 5.7L280.0 5.7Q280.6 5.4 281.3 5.4L281.3 5.4Q282.0 5.4 282.5 5.6Q283.0 5.9 283.3 6.5Q283.6 7.0 283.6 7.8L283.6 7.8L283.6 12L282.5 12L282.5 7.9Q282.5 7.2 282.1 6.7Q281.7 6.3 281.0 6.3L281.0 6.3Q280.5 6.3 280.2 6.5Q279.8 6.7 279.6 7.1Q279.4 7.5 279.4 8.1ZM287.2 12.2L287.2 12.2Q286.6 12.2 286.1 11.9Q285.6 11.7 285.3 11.2Q285.0 10.8 285.0 10.1L285.0 10.1Q285.0 9.6 285.2 9.2Q285.5 8.9 285.8 8.7Q286.2 8.5 286.6 8.4Q287.1 8.3 287.6 8.2L287.6 8.2Q288.1 8.1 288.5 8.1Q288.9 8.1 289.1 8.0Q289.2 7.9 289.2 7.6L289.2 7.6L289.2 7.6Q289.2 7.2 289.1 6.9Q288.9 6.6 288.6 6.4Q288.3 6.3 287.9 6.3L287.9 6.3Q287.4 6.3 287.1 6.4Q286.7 6.6 286.5 6.8Q286.3 7.0 286.2 7.3L286.2 7.3L285.2 6.9Q285.4 6.3 285.9 6.0Q286.3 5.6 286.8 5.5Q287.3 5.4 287.8 5.4L287.8 5.4Q288.2 5.4 288.6 5.4Q289.0 5.5 289.4 5.8Q289.8 6.0 290.0 6.5Q290.3 6.9 290.3 7.7L290.3 7.7L290.3 12L289.3 12L289.3 11.1L289.2 11.1Q289.1 11.3 288.8 11.6Q288.6 11.8 288.2 12.0Q287.8 12.2 287.2 12.2ZM287.4 11.2L287.4 11.2Q288.0 11.2 288.4 11.0Q288.8 10.8 289.0 10.4Q289.2 10.0 289.2 9.6L289.2 9.6L289.2 8.7Q289.2 8.8 289.0 8.9Q288.7 8.9 288.5 9.0Q288.2 9.0 287.9 9.0Q287.7 9.1 287.5 9.1L287.5 9.1Q287.1 9.1 286.8 9.3Q286.5 9.4 286.3 9.6Q286.1 9.8 286.1 10.2L286.1 10.2Q286.1 10.5 286.2 10.8Q286.4 11.0 286.7 11.1Q287.0 11.2 287.4 11.2ZM293.2 8.1L293.2 8.1L293.2 12L292.1 12L292.1 5.4L293.2 5.4L293.2 6.7Q293.4 6.0 293.9 5.7L293.9 5.7Q294.4 5.4 295.2 5.4L295.2 5.4Q295.8 5.4 296.3 5.6Q296.8 5.9 297.1 6.5Q297.4 7.0 297.4 7.8L297.4 7.8L297.4 12L296.3 12L296.3 7.9Q296.3 7.2 295.9 6.7Q295.5 6.3 294.9 6.3L294.9 6.3Q294.4 6.3 294.0 6.5Q293.6 6.7 293.4 7.1Q293.2 7.5 293.2 8.1ZM300.3 12L299.2 12L299.2 3.3L300.3 3.3L300.3 8.3L300.4 8.3L303.2 5.4L304.5 5.4L301.8 8.3L304.7 12L303.4 12L301.0 8.9L300.3 9.6L300.3 12ZM308.0 12.1L308.0 12.1Q307.4 12.1 306.8 11.9Q306.3 11.7 306.0 11.4Q305.6 11.0 305.5 10.4L305.5 10.4L306.5 10.2Q306.7 10.7 307.1 11.0Q307.4 11.2 308.0 11.2L308.0 11.2Q308.7 11.2 309.1 10.9Q309.5 10.6 309.5 10.2L309.5 10.2Q309.5 9.9 309.3 9.7Q309.1 9.4 308.6 9.3L308.6 9.3L307.5 9.1Q306.6 8.9 306.2 8.4Q305.7 8.0 305.7 7.3L305.7 7.3Q305.7 6.7 306.0 6.3Q306.4 5.9 306.9 5.6Q307.5 5.4 308.2 5.4L308.2 5.4Q308.8 5.4 309.3 5.6Q309.8 5.8 310.1 6.1Q310.4 6.5 310.5 6.9L310.5 6.9L309.6 7.2Q309.4 6.8 309.1 6.6Q308.8 6.3 308.2 6.3L308.2 6.3Q307.6 6.3 307.2 6.5Q306.8 6.8 306.8 7.2L306.8 7.2Q306.8 7.6 307.1 7.8Q307.3 8.0 307.9 8.2L307.9 8.2L308.9 8.4Q309.8 8.6 310.2 9.0Q310.6 9.5 310.6 10.2L310.6 10.2Q310.6 10.7 310.3 11.2Q310.0 11.6 309.4 11.9Q308.8 12.1 308.0 12.1Z M316.8 5.4L318.1 5.4L318.1 6.4L316.8 6.4L316.8 10.3Q316.8 10.7 316.9 10.9Q317.1 11.1 317.5 11.1L317.5 11.1Q317.6 11.1 317.8 11.1Q317.9 11.1 318.1 11.1L318.1 11.1L318.3 12.0Q318.1 12.0 317.9 12.1Q317.7 12.1 317.5 12.1L317.5 12.1Q316.7 12.1 316.2 11.6Q315.7 11.2 315.7 10.4L315.7 10.4L315.7 6.4L314.7 6.4L314.7 5.4L315.7 5.4L315.7 3.9L316.8 3.9L316.8 5.4ZM322.1 12.1L322.1 12.1Q321.2 12.1 320.6 11.7Q319.9 11.3 319.5 10.5Q319.1 9.8 319.1 8.8L319.1 8.8Q319.1 7.7 319.5 7.0Q319.9 6.2 320.6 5.8Q321.2 5.4 322.1 5.4L322.1 5.4Q323.0 5.4 323.7 5.8Q324.4 6.2 324.7 7.0Q325.1 7.7 325.1 8.8L325.1 8.8Q325.1 9.8 324.7 10.5Q324.4 11.3 323.7 11.7Q323.0 12.1 322.1 12.1ZM322.1 11.2L322.1 11.2Q322.8 11.2 323.2 10.9Q323.6 10.5 323.8 10.0Q324.0 9.4 324.0 8.8L324.0 8.8Q324.0 8.1 323.8 7.6Q323.6 7.0 323.2 6.7Q322.8 6.3 322.1 6.3L322.1 6.3Q321.5 6.3 321.0 6.7Q320.6 7.0 320.4 7.6Q320.2 8.1 320.2 8.8L320.2 8.8Q320.2 9.4 320.4 10.0Q320.6 10.5 321.0 10.9Q321.5 11.2 322.1 11.2Z "/></g><mask id="satori_om-id-1"><rect x="332" y="0" width="74" height="15" fill="#fff"/></mask><g  ><path fill="#fff" d="M335.6 12.1L335.6 12.1Q334.7 12.1 334.0 11.7Q333.4 11.3 333.0 10.5Q332.6 9.8 332.6 8.8L332.6 8.8Q332.6 7.7 333.0 7.0Q333.4 6.2 334.0 5.8Q334.7 5.4 335.6 5.4L335.6 5.4Q336.1 5.4 336.5 5.5Q336.9 5.6 337.3 5.8Q337.6 6.1 337.9 6.4Q338.1 6.8 338.2 7.2L338.2 7.2L337.2 7.5Q337.2 7.2 337.0 7.0Q336.9 6.8 336.7 6.6Q336.5 6.5 336.2 6.4Q335.9 6.3 335.6 6.3L335.6 6.3Q334.9 6.3 334.5 6.7Q334.1 7.0 333.9 7.6Q333.7 8.1 333.7 8.8L333.7 8.8Q333.7 9.4 333.9 10.0Q334.1 10.5 334.5 10.9Q334.9 11.2 335.6 11.2L335.6 11.2Q335.9 11.2 336.2 11.1Q336.5 11.0 336.7 10.9Q336.9 10.7 337.0 10.5Q337.2 10.3 337.3 10.0L337.3 10.0L338.3 10.3Q338.1 10.7 337.9 11.1Q337.6 11.4 337.3 11.6Q336.9 11.9 336.5 12.0Q336.1 12.1 335.6 12.1ZM342.4 12.1L342.4 12.1Q341.6 12.1 340.9 11.7Q340.2 11.3 339.8 10.5Q339.5 9.8 339.5 8.8L339.5 8.8Q339.5 7.7 339.8 7.0Q340.2 6.2 340.9 5.8Q341.6 5.4 342.4 5.4L342.4 5.4Q343.3 5.4 344.0 5.8Q344.7 6.2 345.1 7.0Q345.4 7.7 345.4 8.8L345.4 8.8Q345.4 9.8 345.1 10.5Q344.7 11.3 344.0 11.7Q343.3 12.1 342.4 12.1ZM342.4 11.2L342.4 11.2Q343.1 11.2 343.5 10.9Q344.0 10.5 344.2 10.0Q344.4 9.4 344.4 8.8L344.4 8.8Q344.4 8.1 344.2 7.6Q344.0 7.0 343.5 6.7Q343.1 6.3 342.4 6.3L342.4 6.3Q341.8 6.3 341.4 6.7Q340.9 7.0 340.7 7.6Q340.5 8.1 340.5 8.8L340.5 8.8Q340.5 9.4 340.7 10.0Q340.9 10.5 341.4 10.9Q341.8 11.2 342.4 11.2ZM347.0 3.3L348.0 3.3L348.0 12L347.0 12L347.0 3.3ZM349.9 3.3L350.9 3.3L350.9 12L349.9 12L349.9 3.3ZM355.5 12.1L355.5 12.1Q354.6 12.1 353.9 11.7Q353.2 11.3 352.8 10.5Q352.5 9.8 352.5 8.8Q352.5 7.8 352.8 7.0Q353.2 6.2 353.9 5.8Q354.5 5.4 355.4 5.4L355.4 5.4Q355.9 5.4 356.4 5.5Q357.0 5.7 357.4 6.1Q357.8 6.5 358.0 7.1Q358.3 7.7 358.3 8.6L358.3 8.6L358.3 9.1L353.5 9.1Q353.6 9.7 353.8 10.2L353.8 10.2Q354.0 10.7 354.5 10.9Q355.0 11.2 355.5 11.2L355.5 11.2Q355.9 11.2 356.3 11.1Q356.6 11.0 356.8 10.8Q357.0 10.5 357.1 10.2L357.1 10.2L358.2 10.5Q358.0 11.0 357.7 11.3Q357.3 11.7 356.8 11.9Q356.2 12.1 355.5 12.1ZM353.5 8.2L353.5 8.2L357.2 8.2Q357.2 7.7 357.0 7.4L357.0 7.4Q356.8 6.9 356.4 6.6Q356.0 6.3 355.4 6.3Q354.8 6.3 354.4 6.6Q354.0 6.9 353.8 7.3L353.8 7.3Q353.6 7.7 353.5 8.2ZM362.5 12.1L362.5 12.1Q361.6 12.1 360.9 11.7Q360.2 11.3 359.8 10.5Q359.5 9.8 359.5 8.8L359.5 8.8Q359.5 7.7 359.8 7.0Q360.2 6.2 360.9 5.8Q361.6 5.4 362.5 5.4L362.5 5.4Q362.9 5.4 363.3 5.5Q363.8 5.6 364.1 5.8Q364.5 6.1 364.7 6.4Q365.0 6.8 365.1 7.2L365.1 7.2L364.1 7.5Q364.0 7.2 363.9 7.0Q363.7 6.8 363.5 6.6Q363.3 6.5 363.0 6.4Q362.8 6.3 362.5 6.3L362.5 6.3Q361.8 6.3 361.4 6.7Q361.0 7.0 360.7 7.6Q360.5 8.1 360.5 8.8L360.5 8.8Q360.5 9.4 360.7 10.0Q361.0 10.5 361.4 10.9Q361.8 11.2 362.5 11.2L362.5 11.2Q362.8 11.2 363.1 11.1Q363.3 11.0 363.5 10.9Q363.8 10.7 363.9 10.5Q364.1 10.3 364.1 10.0L364.1 10.0L365.1 10.3Q365 10.7 364.7 11.1Q364.5 11.4 364.1 11.6Q363.8 11.9 363.4 12.0Q362.9 12.1 362.5 12.1ZM367.9 5.4L369.2 5.4L369.2 6.4L367.9 6.4L367.9 10.3Q367.9 10.7 368.0 10.9Q368.2 11.1 368.6 11.1L368.6 11.1Q368.7 11.1 368.9 11.1Q369.1 11.1 369.2 11.1L369.2 11.1L369.4 12.0Q369.2 12.0 369.0 12.1Q368.8 12.1 368.6 12.1L368.6 12.1Q367.8 12.1 367.3 11.6Q366.8 11.2 366.8 10.4L366.8 10.4L366.8 6.4L365.8 6.4L365.8 5.4L366.8 5.4L366.8 3.9L367.9 3.9L367.9 5.4ZM371.6 12L370.6 12L370.6 5.4L371.6 5.4L371.6 12ZM371.1 4.4L371.1 4.4Q370.8 4.4 370.6 4.2Q370.4 4.0 370.4 3.7L370.4 3.7Q370.4 3.4 370.6 3.2Q370.8 3.0 371.1 3.0L371.1 3.0Q371.4 3.0 371.6 3.2Q371.8 3.4 371.8 3.7L371.8 3.7Q371.8 4.0 371.6 4.2Q371.4 4.4 371.1 4.4ZM376.1 12.1L376.1 12.1Q375.2 12.1 374.6 11.7Q373.9 11.3 373.5 10.5Q373.2 9.8 373.2 8.8L373.2 8.8Q373.2 7.7 373.5 7.0Q373.9 6.2 374.6 5.8Q375.2 5.4 376.1 5.4L376.1 5.4Q377.0 5.4 377.7 5.8Q378.4 6.2 378.8 7.0Q379.1 7.7 379.1 8.8L379.1 8.8Q379.1 9.8 378.8 10.5Q378.4 11.3 377.7 11.7Q377.0 12.1 376.1 12.1ZM376.1 11.2L376.1 11.2Q376.8 11.2 377.2 10.9Q377.7 10.5 377.9 10.0Q378.1 9.4 378.1 8.8L378.1 8.8Q378.1 8.1 377.9 7.6Q377.7 7.0 377.2 6.7Q376.8 6.3 376.1 6.3L376.1 6.3Q375.5 6.3 375.1 6.7Q374.6 7.0 374.4 7.6Q374.2 8.1 374.2 8.8L374.2 8.8Q374.2 9.4 374.4 10.0Q374.6 10.5 375.1 10.9Q375.5 11.2 376.1 11.2ZM381.7 8.1L381.7 8.1L381.7 12L380.7 12L380.7 5.4L381.7 5.4L381.7 6.7Q382.0 6.0 382.4 5.7L382.4 5.7Q382.9 5.4 383.7 5.4L383.7 5.4Q384.4 5.4 384.9 5.6Q385.3 5.9 385.6 6.5Q385.9 7.0 385.9 7.8L385.9 7.8L385.9 12L384.9 12L384.9 7.9Q384.9 7.2 384.5 6.7Q384.1 6.3 383.4 6.3L383.4 6.3Q382.9 6.3 382.5 6.5Q382.2 6.7 381.9 7.1Q381.7 7.5 381.7 8.1ZM390.5 12.1L390.5 12.1Q389.6 12.1 388.9 11.7Q388.2 11.3 387.8 10.5Q387.4 9.8 387.4 8.8Q387.4 7.8 387.8 7.0Q388.2 6.2 388.8 5.8Q389.5 5.4 390.4 5.4L390.4 5.4Q390.9 5.4 391.4 5.5Q391.9 5.7 392.3 6.1Q392.8 6.5 393.0 7.1Q393.2 7.7 393.2 8.6L393.2 8.6L393.2 9.1L388.5 9.1Q388.5 9.7 388.8 10.2L388.8 10.2Q389.0 10.7 389.5 10.9Q389.9 11.2 390.5 11.2L390.5 11.2Q390.9 11.2 391.2 11.1Q391.5 11.0 391.8 10.8Q392.0 10.5 392.1 10.2L392.1 10.2L393.1 10.5Q393.0 11.0 392.6 11.3Q392.3 11.7 391.7 11.9Q391.2 12.1 390.5 12.1ZM388.5 8.2L388.5 8.2L392.2 8.2Q392.1 7.7 392.0 7.4L392.0 7.4Q391.8 6.9 391.4 6.6Q391.0 6.3 390.4 6.3Q389.8 6.3 389.4 6.6Q389.0 6.9 388.7 7.3L388.7 7.3Q388.5 7.7 388.5 8.2ZM397.0 12.1L397.0 12.1Q396.3 12.1 395.8 11.8Q395.3 11.5 395.0 11.0Q394.8 10.4 394.8 9.6L394.8 9.6L394.8 5.4L395.8 5.4L395.8 9.5Q395.8 10.3 396.2 10.7Q396.6 11.1 397.3 11.1L397.3 11.1Q397.8 11.1 398.1 10.9Q398.5 10.7 398.7 10.3Q398.9 9.9 398.9 9.4L398.9 9.4L398.9 5.4L400.0 5.4L400.0 12L399.0 12L399.0 10.8Q398.7 11.4 398.3 11.7L398.3 11.7Q397.7 12.1 397.0 12.1ZM402.9 12L401.8 12L401.8 5.4L402.9 5.4L402.9 6.5L402.9 6.5Q403.1 6.0 403.6 5.7Q404.1 5.4 404.6 5.4L404.6 5.4Q404.8 5.4 404.9 5.4Q405.1 5.4 405.2 5.4L405.2 5.4L405.2 6.4Q405.1 6.4 404.9 6.4Q404.8 6.4 404.5 6.4L404.5 6.4Q404.1 6.4 403.7 6.6Q403.3 6.8 403.1 7.1Q402.9 7.5 402.9 7.9L402.9 7.9L402.9 12Z "/></g><mask id="satori_om-id-2"><rect x="412" y="0" width="78" height="15" fill="#fff"/></mask><g  ><path fill="rgba(255,255,255,.45)" d="M415.4 10.4L415.4 10.4Q414.9 10.4 414.4 10.1Q414.0 9.9 413.8 9.5Q413.5 9.0 413.5 8.5L413.5 8.5Q413.5 8.0 413.8 7.6Q414.0 7.1 414.4 6.9Q414.9 6.6 415.4 6.6L415.4 6.6Q415.9 6.6 416.3 6.9Q416.7 7.1 417.0 7.6Q417.3 8.0 417.3 8.5L417.3 8.5Q417.3 9.0 417.0 9.5Q416.7 9.9 416.3 10.1Q415.9 10.4 415.4 10.4Z M424.1 14.4L423.1 14.4L423.1 5.4L424.1 5.4L424.1 6.5L424.2 6.5Q424.3 6.3 424.5 6.1Q424.7 5.8 425.1 5.6Q425.4 5.4 426.1 5.4L426.1 5.4Q426.9 5.4 427.5 5.8Q428.2 6.2 428.5 6.9Q428.9 7.7 428.9 8.7L428.9 8.7Q428.9 9.8 428.5 10.5Q428.2 11.3 427.5 11.7Q426.9 12.1 426.1 12.1L426.1 12.1Q425.5 12.1 425.1 11.9Q424.7 11.7 424.5 11.4Q424.3 11.2 424.2 11.0L424.2 11.0L424.1 11.0L424.1 14.4ZM425.9 11.2L425.9 11.2Q426.5 11.2 427.0 10.9Q427.4 10.5 427.6 10.0Q427.8 9.4 427.8 8.7L427.8 8.7Q427.8 8.1 427.6 7.5Q427.4 7.0 427.0 6.6Q426.6 6.3 425.9 6.3L425.9 6.3Q425.3 6.3 424.9 6.6Q424.5 6.9 424.3 7.5Q424.1 8.0 424.1 8.7L424.1 8.7Q424.1 9.5 424.3 10.0Q424.5 10.6 424.9 10.9Q425.3 11.2 425.9 11.2ZM433.1 12.1L433.1 12.1Q432.2 12.1 431.5 11.7Q430.8 11.3 430.5 10.5Q430.1 9.8 430.1 8.8L430.1 8.8Q430.1 7.7 430.5 7.0Q430.8 6.2 431.5 5.8Q432.2 5.4 433.1 5.4L433.1 5.4Q434.0 5.4 434.6 5.8Q435.3 6.2 435.7 7.0Q436.1 7.7 436.1 8.8L436.1 8.8Q436.1 9.8 435.7 10.5Q435.3 11.3 434.6 11.7Q434.0 12.1 433.1 12.1ZM433.1 11.2L433.1 11.2Q433.7 11.2 434.2 10.9Q434.6 10.5 434.8 10.0Q435.0 9.4 435.0 8.8L435.0 8.8Q435.0 8.1 434.8 7.6Q434.6 7.0 434.2 6.7Q433.7 6.3 433.1 6.3L433.1 6.3Q432.4 6.3 432.0 6.7Q431.6 7.0 431.4 7.6Q431.2 8.1 431.2 8.8L431.2 8.8Q431.2 9.4 431.4 10.0Q431.6 10.5 432.0 10.9Q432.4 11.2 433.1 11.2ZM440.1 12L439.1 12L437.1 5.4L438.2 5.4L439.0 8.3Q439.2 8.9 439.3 9.6L439.3 9.6Q439.5 10.2 439.6 10.9L439.6 10.9Q439.8 10.2 439.9 9.7L439.9 9.7Q440.1 8.9 440.2 8.3L440.2 8.3L441.0 5.4L442.2 5.4L442.9 8.3Q443.1 8.9 443.3 9.7L443.3 9.7Q443.4 10.2 443.5 10.9L443.5 10.9Q443.7 10.2 443.8 9.7L443.8 9.7Q444.0 8.9 444.2 8.3L444.2 8.3L445.0 5.4L446.1 5.4L444.1 12L443.0 12L442.2 9.0Q442.1 8.6 441.9 8.1Q441.8 7.6 441.7 7.2L441.7 7.2Q441.6 6.9 441.6 6.6L441.6 6.6Q441.5 6.9 441.5 7.1L441.5 7.1Q441.3 7.6 441.2 8.1Q441.1 8.6 441.0 9.0L441.0 9.0L440.1 12ZM450.2 12.1L450.2 12.1Q449.2 12.1 448.5 11.7Q447.8 11.3 447.5 10.5Q447.1 9.8 447.1 8.8Q447.1 7.8 447.5 7.0Q447.8 6.2 448.5 5.8Q449.2 5.4 450.0 5.4L450.0 5.4Q450.6 5.4 451.1 5.5Q451.6 5.7 452.0 6.1Q452.4 6.5 452.7 7.1Q452.9 7.7 452.9 8.6L452.9 8.6L452.9 9.1L448.2 9.1Q448.2 9.7 448.4 10.2L448.4 10.2Q448.7 10.7 449.1 10.9Q449.6 11.2 450.2 11.2L450.2 11.2Q450.6 11.2 450.9 11.1Q451.2 11.0 451.4 10.8Q451.7 10.5 451.8 10.2L451.8 10.2L452.8 10.5Q452.6 11.0 452.3 11.3Q451.9 11.7 451.4 11.9Q450.8 12.1 450.2 12.1ZM448.2 8.2L448.2 8.2L451.8 8.2Q451.8 7.7 451.6 7.4L451.6 7.4Q451.4 6.9 451.0 6.6Q450.6 6.3 450.0 6.3Q449.5 6.3 449.0 6.6Q448.6 6.9 448.4 7.3L448.4 7.3Q448.2 7.7 448.2 8.2ZM455.5 12L454.4 12L454.4 5.4L455.4 5.4L455.4 6.5L455.5 6.5Q455.7 6.0 456.1 5.7Q456.6 5.4 457.2 5.4L457.2 5.4Q457.3 5.4 457.5 5.4Q457.6 5.4 457.7 5.4L457.7 5.4L457.7 6.4Q457.7 6.4 457.5 6.4Q457.3 6.4 457.1 6.4L457.1 6.4Q456.6 6.4 456.3 6.6Q455.9 6.8 455.7 7.1Q455.5 7.5 455.5 7.9L455.5 7.9L455.5 12ZM461.7 12.1L461.7 12.1Q460.7 12.1 460.0 11.7Q459.4 11.3 459.0 10.5Q458.6 9.8 458.6 8.8Q458.6 7.8 459.0 7.0Q459.3 6.2 460.0 5.8Q460.7 5.4 461.6 5.4L461.6 5.4Q462.1 5.4 462.6 5.5Q463.1 5.7 463.5 6.1Q463.9 6.5 464.2 7.1Q464.4 7.7 464.4 8.6L464.4 8.6L464.4 9.1L459.7 9.1Q459.7 9.7 459.9 10.2L459.9 10.2Q460.2 10.7 460.6 10.9Q461.1 11.2 461.7 11.2L461.7 11.2Q462.1 11.2 462.4 11.1Q462.7 11.0 462.9 10.8Q463.2 10.5 463.3 10.2L463.3 10.2L464.3 10.5Q464.2 11.0 463.8 11.3Q463.4 11.7 462.9 11.9Q462.4 12.1 461.7 12.1ZM459.7 8.2L459.7 8.2L463.3 8.2Q463.3 7.7 463.2 7.4L463.2 7.4Q462.9 6.9 462.5 6.6Q462.2 6.3 461.6 6.3Q461.0 6.3 460.5 6.6Q460.1 6.9 459.9 7.3L459.9 7.3Q459.7 7.7 459.7 8.2ZM468.4 12.1L468.4 12.1Q467.6 12.1 466.9 11.7Q466.3 11.3 466.0 10.5Q465.6 9.8 465.6 8.7L465.6 8.7Q465.6 7.7 466.0 6.9Q466.3 6.2 466.9 5.8Q467.6 5.4 468.4 5.4L468.4 5.4Q469.0 5.4 469.4 5.6Q469.8 5.8 470.0 6.1Q470.2 6.3 470.3 6.5L470.3 6.5L470.4 6.5L470.4 3.3L471.4 3.3L471.4 12L470.4 12L470.4 11.0L470.3 11.0Q470.2 11.2 470.0 11.4Q469.8 11.7 469.4 11.9Q469.0 12.1 468.4 12.1ZM468.5 11.2L468.5 11.2Q469.1 11.2 469.5 10.9Q470.0 10.6 470.2 10.0Q470.4 9.5 470.4 8.7L470.4 8.7Q470.4 8.0 470.2 7.5Q470.0 6.9 469.6 6.6Q469.1 6.3 468.5 6.3L468.5 6.3Q467.9 6.3 467.5 6.6Q467.1 7.0 466.9 7.5Q466.7 8.1 466.7 8.7L466.7 8.7Q466.7 9.4 466.9 10.0Q467.1 10.5 467.5 10.9Q467.9 11.2 468.5 11.2Z M479.7 12.1L479.7 12.1Q479.1 12.1 478.7 11.9Q478.3 11.7 478.1 11.4Q477.9 11.2 477.8 11.0L477.8 11.0L477.7 11.0L477.7 12L476.6 12L476.6 3.3L477.7 3.3L477.7 6.5L477.8 6.5Q477.9 6.3 478.1 6.1Q478.3 5.8 478.7 5.6Q479.0 5.4 479.7 5.4L479.7 5.4Q480.5 5.4 481.1 5.8Q481.8 6.2 482.1 6.9Q482.5 7.7 482.5 8.7L482.5 8.7Q482.5 9.8 482.1 10.5Q481.8 11.3 481.1 11.7Q480.5 12.1 479.7 12.1ZM479.5 11.2L479.5 11.2Q480.1 11.2 480.6 10.9Q481.0 10.5 481.2 10.0Q481.4 9.4 481.4 8.7L481.4 8.7Q481.4 8.1 481.2 7.5Q481.0 7.0 480.6 6.6Q480.2 6.3 479.5 6.3L479.5 6.3Q478.9 6.3 478.5 6.6Q478.1 6.9 477.9 7.5Q477.7 8.0 477.7 8.7L477.7 8.7Q477.7 9.5 477.9 10.0Q478.1 10.6 478.5 10.9Q478.9 11.2 479.5 11.2ZM483.9 14.4L483.9 14.4L484.2 13.5L484.3 13.5Q484.6 13.6 484.9 13.5Q485.1 13.5 485.3 13.3Q485.5 13.0 485.7 12.6L485.7 12.6L485.9 12.0L483.4 5.4L484.5 5.4L485.9 9.3Q486.2 9.9 486.3 10.5L486.3 10.5Q486.4 10.8 486.4 11.0L486.4 11.0Q486.5 10.8 486.6 10.5L486.6 10.5Q486.7 9.9 486.9 9.3L486.9 9.3L488.3 5.4L489.5 5.4L486.6 13.0Q486.4 13.5 486.1 13.8Q485.9 14.2 485.5 14.3Q485.1 14.5 484.7 14.5L484.7 14.5Q484.4 14.5 484.2 14.5Q484.0 14.4 483.9 14.4Z "/></g><mask id="satori_om-id-3"><rect x="496" y="0" width="74" height="15" fill="#fff"/></mask><g  ><path fill="#fff" d="M498.0 12L496.9 12L496.9 5.4L497.9 5.4L497.9 6.5L498.0 6.5Q498.2 6.0 498.7 5.7Q499.1 5.4 499.7 5.4L499.7 5.4Q499.8 5.4 500.0 5.4Q500.2 5.4 500.2 5.4L500.2 5.4L500.2 6.4Q500.2 6.4 500.0 6.4Q499.8 6.4 499.6 6.4L499.6 6.4Q499.1 6.4 498.8 6.6Q498.4 6.8 498.2 7.1Q498.0 7.5 498.0 7.9L498.0 7.9L498.0 12ZM504.2 12.1L504.2 12.1Q503.2 12.1 502.6 11.7Q501.9 11.3 501.5 10.5Q501.1 9.8 501.1 8.8Q501.1 7.8 501.5 7.0Q501.9 6.2 502.5 5.8Q503.2 5.4 504.1 5.4L504.1 5.4Q504.6 5.4 505.1 5.5Q505.6 5.7 506.0 6.1Q506.4 6.5 506.7 7.1Q506.9 7.7 506.9 8.6L506.9 8.6L506.9 9.1L502.2 9.1Q502.2 9.7 502.4 10.2L502.4 10.2Q502.7 10.7 503.2 10.9Q503.6 11.2 504.2 11.2L504.2 11.2Q504.6 11.2 504.9 11.1Q505.2 11.0 505.5 10.8Q505.7 10.5 505.8 10.2L505.8 10.2L506.8 10.5Q506.7 11.0 506.3 11.3Q505.9 11.7 505.4 11.9Q504.9 12.1 504.2 12.1ZM502.2 8.2L502.2 8.2L505.9 8.2Q505.8 7.7 505.7 7.4L505.7 7.4Q505.5 6.9 505.1 6.6Q504.7 6.3 504.1 6.3Q503.5 6.3 503.1 6.6Q502.6 6.9 502.4 7.3L502.4 7.3Q502.2 7.7 502.2 8.2ZM510.3 12.2L510.3 12.2Q509.7 12.2 509.1 11.9Q508.6 11.7 508.3 11.2Q508.0 10.8 508.0 10.1L508.0 10.1Q508.0 9.6 508.3 9.2Q508.5 8.9 508.9 8.7Q509.2 8.5 509.7 8.4Q510.1 8.3 510.6 8.2L510.6 8.2Q511.2 8.1 511.5 8.1Q511.9 8.1 512.1 8.0Q512.3 7.9 512.3 7.6L512.3 7.6L512.3 7.6Q512.3 7.2 512.1 6.9Q512.0 6.6 511.7 6.4Q511.4 6.3 510.9 6.3L510.9 6.3Q510.4 6.3 510.1 6.4Q509.8 6.6 509.6 6.8Q509.3 7.0 509.2 7.3L509.2 7.3L508.2 6.9Q508.5 6.3 508.9 6.0Q509.3 5.6 509.9 5.5Q510.4 5.4 510.9 5.4L510.9 5.4Q511.2 5.4 511.6 5.4Q512.0 5.5 512.4 5.8Q512.8 6.0 513.1 6.5Q513.3 6.9 513.3 7.7L513.3 7.7L513.3 12L512.3 12L512.3 11.1L512.2 11.1Q512.1 11.3 511.9 11.6Q511.6 11.8 511.2 12.0Q510.8 12.2 510.3 12.2ZM510.5 11.2L510.5 11.2Q511.0 11.2 511.4 11.0Q511.8 10.8 512.1 10.4Q512.3 10.0 512.3 9.6L512.3 9.6L512.3 8.7Q512.2 8.8 512.0 8.9Q511.8 8.9 511.5 9.0Q511.2 9.0 511.0 9.0Q510.7 9.1 510.5 9.1L510.5 9.1Q510.2 9.1 509.8 9.3Q509.5 9.4 509.3 9.6Q509.1 9.8 509.1 10.2L509.1 10.2Q509.1 10.5 509.3 10.8Q509.5 11.0 509.8 11.1Q510.1 11.2 510.5 11.2ZM517.6 12.1L517.6 12.1Q516.8 12.1 516.2 11.7Q515.6 11.3 515.2 10.5Q514.9 9.8 514.9 8.7L514.9 8.7Q514.9 7.7 515.2 6.9Q515.6 6.2 516.2 5.8Q516.8 5.4 517.6 5.4L517.6 5.4Q518.3 5.4 518.7 5.6Q519.0 5.8 519.2 6.1Q519.4 6.3 519.5 6.5L519.5 6.5L519.6 6.5L519.6 3.3L520.7 3.3L520.7 12L519.7 12L519.7 11.0L519.5 11.0Q519.4 11.2 519.2 11.4Q519.0 11.7 518.6 11.9Q518.3 12.1 517.6 12.1ZM517.8 11.2L517.8 11.2Q518.4 11.2 518.8 10.9Q519.2 10.6 519.4 10.0Q519.6 9.5 519.6 8.7L519.6 8.7Q519.6 8.0 519.4 7.5Q519.2 6.9 518.8 6.6Q518.4 6.3 517.8 6.3L517.8 6.3Q517.2 6.3 516.8 6.6Q516.3 7.0 516.1 7.5Q515.9 8.1 515.9 8.7L515.9 8.7Q515.9 9.4 516.1 10.0Q516.3 10.5 516.8 10.9Q517.2 11.2 517.8 11.2ZM523.6 12L522.5 12L522.5 5.4L523.6 5.4L523.6 6.7Q523.7 6.3 523.9 6.0L523.9 6.0Q524.2 5.7 524.6 5.5Q525.0 5.3 525.4 5.3L525.4 5.3Q526.1 5.3 526.6 5.8L526.6 5.8Q526.9 6.1 527.1 6.7L527.1 6.7Q527.2 6.3 527.4 6.1L527.4 6.1Q527.7 5.7 528.2 5.5Q528.6 5.3 529.1 5.3L529.1 5.3Q529.7 5.3 530.2 5.6Q530.6 5.8 530.9 6.3Q531.2 6.8 531.2 7.6L531.2 7.6L531.2 12L530.1 12L530.1 7.6Q530.1 6.9 529.7 6.6Q529.3 6.3 528.8 6.3L528.8 6.3Q528.4 6.3 528.0 6.5Q527.7 6.7 527.6 7.0Q527.4 7.3 527.4 7.7L527.4 7.7L527.4 12L526.3 12L526.3 7.5Q526.3 7.0 526.0 6.6Q525.6 6.3 525.0 6.3L525.0 6.3Q524.7 6.3 524.3 6.5Q524.0 6.7 523.8 7.0Q523.6 7.4 523.6 7.9L523.6 7.9L523.6 12ZM535.8 12.1L535.8 12.1Q534.8 12.1 534.2 11.7Q533.5 11.3 533.1 10.5Q532.7 9.8 532.7 8.8Q532.7 7.8 533.1 7.0Q533.4 6.2 534.1 5.8Q534.8 5.4 535.7 5.4L535.7 5.4Q536.2 5.4 536.7 5.5Q537.2 5.7 537.6 6.1Q538.0 6.5 538.3 7.1Q538.5 7.7 538.5 8.6L538.5 8.6L538.5 9.1L533.8 9.1Q533.8 9.7 534.0 10.2L534.0 10.2Q534.3 10.7 534.7 10.9Q535.2 11.2 535.8 11.2L535.8 11.2Q536.2 11.2 536.5 11.1Q536.8 11.0 537.0 10.8Q537.3 10.5 537.4 10.2L537.4 10.2L538.4 10.5Q538.3 11.0 537.9 11.3Q537.5 11.7 537.0 11.9Q536.5 12.1 535.8 12.1ZM533.8 8.2L533.8 8.2L537.4 8.2Q537.4 7.7 537.3 7.4L537.3 7.4Q537.1 6.9 536.7 6.6Q536.3 6.3 535.7 6.3Q535.1 6.3 534.7 6.6Q534.2 6.9 534.0 7.3L534.0 7.3Q533.8 7.7 533.8 8.2ZM540.0 7.8L543.8 7.8L543.8 8.8L540.0 8.8L540.0 7.8ZM547.4 12.2L547.4 12.2Q546.8 12.2 546.3 11.9Q545.8 11.7 545.5 11.2Q545.2 10.8 545.2 10.1L545.2 10.1Q545.2 9.6 545.4 9.2Q545.6 8.9 546.0 8.7Q546.3 8.5 546.8 8.4Q547.2 8.3 547.7 8.2L547.7 8.2Q548.3 8.1 548.7 8.1Q549.0 8.1 549.2 8.0Q549.4 7.9 549.4 7.6L549.4 7.6L549.4 7.6Q549.4 7.2 549.2 6.9Q549.1 6.6 548.8 6.4Q548.5 6.3 548.0 6.3L548.0 6.3Q547.5 6.3 547.2 6.4Q546.9 6.6 546.7 6.8Q546.5 7.0 546.4 7.3L546.4 7.3L545.3 6.9Q545.6 6.3 546.0 6.0Q546.4 5.6 547.0 5.5Q547.5 5.4 548.0 5.4L548.0 5.4Q548.3 5.4 548.7 5.4Q549.2 5.5 549.5 5.8Q549.9 6.0 550.2 6.5Q550.4 6.9 550.4 7.7L550.4 7.7L550.4 12L549.4 12L549.4 11.1L549.3 11.1Q549.2 11.3 549.0 11.6Q548.7 11.8 548.3 12.0Q547.9 12.2 547.4 12.2ZM547.6 11.2L547.6 11.2Q548.2 11.2 548.6 11.0Q549.0 10.8 549.2 10.4Q549.4 10.0 549.4 9.6L549.4 9.6L549.4 8.7Q549.3 8.8 549.1 8.9Q548.9 8.9 548.6 9.0Q548.3 9.0 548.1 9.0Q547.8 9.1 547.7 9.1L547.7 9.1Q547.3 9.1 546.9 9.3Q546.6 9.4 546.4 9.6Q546.2 9.8 546.2 10.2L546.2 10.2Q546.2 10.5 546.4 10.8Q546.6 11.0 546.9 11.1Q547.2 11.2 547.6 11.2ZM554.5 12.1L554.5 12.1Q553.8 12.1 553.3 11.8Q552.8 11.5 552.6 11.0Q552.3 10.4 552.3 9.6L552.3 9.6L552.3 5.4L553.3 5.4L553.3 9.5Q553.3 10.3 553.7 10.7Q554.1 11.1 554.8 11.1L554.8 11.1Q555.3 11.1 555.7 10.9Q556.0 10.7 556.3 10.3Q556.5 9.9 556.5 9.4L556.5 9.4L556.5 5.4L557.5 5.4L557.5 12L556.5 12L556.5 10.8Q556.2 11.4 555.8 11.7L555.8 11.7Q555.2 12.1 554.5 12.1ZM560.4 12L559.4 12L559.4 5.4L560.4 5.4L560.4 6.5L560.5 6.5Q560.7 6.0 561.1 5.7Q561.6 5.4 562.2 5.4L562.2 5.4Q562.3 5.4 562.5 5.4Q562.6 5.4 562.7 5.4L562.7 5.4L562.7 6.4Q562.7 6.4 562.5 6.4Q562.3 6.4 562.1 6.4L562.1 6.4Q561.6 6.4 561.2 6.6Q560.9 6.8 560.7 7.1Q560.4 7.5 560.4 7.9L560.4 7.9L560.4 12ZM565.7 12.2L565.7 12.2Q565.1 12.2 564.6 11.9Q564.1 11.7 563.8 11.2Q563.5 10.8 563.5 10.1L563.5 10.1Q563.5 9.6 563.7 9.2Q564.0 8.9 564.3 8.7Q564.7 8.5 565.1 8.4Q565.6 8.3 566.1 8.2L566.1 8.2Q566.6 8.1 567.0 8.1Q567.4 8.1 567.6 8.0Q567.7 7.9 567.7 7.6L567.7 7.6L567.7 7.6Q567.7 7.2 567.6 6.9Q567.4 6.6 567.1 6.4Q566.8 6.3 566.4 6.3L566.4 6.3Q565.9 6.3 565.6 6.4Q565.2 6.6 565.0 6.8Q564.8 7.0 564.7 7.3L564.7 7.3L563.7 6.9Q563.9 6.3 564.4 6.0Q564.8 5.6 565.3 5.5Q565.8 5.4 566.3 5.4L566.3 5.4Q566.7 5.4 567.1 5.4Q567.5 5.5 567.9 5.8Q568.3 6.0 568.5 6.5Q568.8 6.9 568.8 7.7L568.8 7.7L568.8 12L567.8 12L567.8 11.1L567.7 11.1Q567.6 11.3 567.3 11.6Q567.1 11.8 566.7 12.0Q566.3 12.2 565.7 12.2ZM565.9 11.2L565.9 11.2Q566.5 11.2 566.9 11.0Q567.3 10.8 567.5 10.4Q567.7 10.0 567.7 9.6L567.7 9.6L567.7 8.7Q567.7 8.8 567.5 8.9Q567.2 8.9 567.0 9.0Q566.7 9.0 566.4 9.0Q566.2 9.1 566.0 9.1L566.0 9.1Q565.6 9.1 565.3 9.3Q565.0 9.4 564.8 9.6Q564.6 9.8 564.6 10.2L564.6 10.2Q564.6 10.5 564.7 10.8Q564.9 11.0 565.2 11.1Q565.5 11.2 565.9 11.2Z "/></g></svg>